<?xml version="1.0" encoding="UTF-8" standalone="no"?>
<!-- Creator: CorelDRAW -->

<svg
   xml:space="preserve"
   width="175"
   height="20"
   version="1.1"
   style="clip-rule:evenodd;fill-rule:evenodd;image-rendering:optimizeQuality;shape-rendering:geometricPrecision;text-rendering:geometricPrecision"
   viewBox="0 0 4630.1994 529.16667"
   id="svg5"
   sodipodi:docname="logo.svg"
   inkscape:version="1.3.2 (091e20e, 2023-11-25)"
   xmlns:inkscape="http://www.inkscape.org/namespaces/inkscape"
   xmlns:sodipodi="http://sodipodi.sourceforge.net/DTD/sodipodi-0.dtd"
   xmlns="http://www.w3.org/2000/svg"
   xmlns:svg="http://www.w3.org/2000/svg"><sodipodi:namedview
   id="namedview5"
   pagecolor="#ffffff"
   bordercolor="#000000"
   borderopacity="0.25"
   inkscape:showpageshadow="2"
   inkscape:pageopacity="0.0"
   inkscape:pagecheckerboard="0"
   inkscape:deskcolor="#d1d1d1"
   inkscape:document-units="mm"
   inkscape:zoom="0.90410331"
   inkscape:cx="219.55456"
   inkscape:cy="153.74349"
   inkscape:window-width="1512"
   inkscape:window-height="779"
   inkscape:window-x="0"
   inkscape:window-y="38"
   inkscape:window-maximized="0"
   inkscape:current-layer="svg5" />
 <defs
   id="defs1">
  <style
   type="text/css"
   id="style1">
   <![CDATA[
    .fil0 {fill:#005D7F}
    .fil2 {fill:#424242}
    .fil1 {fill:#FE0000}
   ]]>
  </style>
 </defs>
 
 
 
 
 
 <path
   id="path5"
   style="fill:#ffffff;stroke-width:0.266101"
   class="fil2"
   d="m 2462.8867,0.32459998 c -28.1908,0 -51.0728,22.07309902 -51.0728,49.42029702 0,27.222098 22.882,49.302397 51.0728,49.302397 h 135.4855 V 479.06767 c 0,27.2248 22.8792,49.3024 51.0728,49.3024 28.1964,0 51.1612,-22.0776 51.1612,-49.3024 V 99.047294 h 135.3971 c 28.1907,0 51.0436,-22.080299 51.0436,-49.302397 0,-27.347198 -22.8529,-49.42029702 -51.0436,-49.42029702 z m 1269.234,0.20649999 c -19.335,0 -34.114,10.60909903 -43.431,27.17379803 l -215.236,429.322772 c -16.464,32.986 7.384,71.7554 43.46,71.7554 17.674,0 34.865,-9.9459 43.46,-27.1148 l 34.137,-68.0673 h 275.279 l 34.255,68.0673 c 12.105,24.4042 41.41,34.0971 65.5,21.7154 23.957,-12.3817 33.537,-42.0662 21.303,-66.356 L 3775.8467,28.206498 c 0.05,0.149 -12.827,-27.67539803 -43.726,-27.67539803 z m 847.73,0.059 c -15.148,0.70089993 -30.454,7.66829953 -40.599,20.83029903 L 4362.8737,250.25878 4192.0707,20.594299 c -37.007,-37.006798 -90.166,-17.9879992 -90.166,29.298198 V 479.21517 c 0,27.2248 22.323,49.3024 49.863,49.3024 27.66,0 49.981,-22.0776 49.981,-49.3024 V 200.24839 l 120.319,161.62669 c 18.047,26.8735 60.711,25.9709 79.899,0.5901 42.755,-55.4689 85.503,-110.9377 128.257,-166.40649 v 283.03848 c 0,27.3472 22.327,49.4204 49.863,49.4204 27.539,0 49.863,-22.0732 49.863,-49.4204 V 49.892497 c 0,-34.195798 -24.852,-50.47049696 -50.099,-49.30239703 z M 3040.1172,1.1211999 c -26.1444,0 -47.3255,22.0730991 -47.3255,49.4202971 V 479.86427 c 0,27.2248 21.1811,49.3024 47.3255,49.3024 h 274.8365 c 26.262,0 47.473,-22.0776 47.473,-49.3024 0,-27.3472 -21.211,-49.4203 -47.473,-49.4203 H 3087.5902 V 314.57898 h 187.0905 c 26.262,0 47.472,-22.1981 47.472,-49.4203 0,-27.22469 -21.21,-49.30239 -47.472,-49.30239 H 3087.5902 V 99.843894 h 227.3635 c 26.262,0 47.473,-22.080199 47.473,-49.302397 0,-27.347198 -21.211,-49.4202971 -47.473,-49.4202971 z m 692.0335,157.9090901 88.248,175.84799 h -176.379 z" />
<path
   id="path6"
   style="fill:#3595d1;fill-opacity:1;stroke-width:0.266101"
   class="fil2"
   d="m 1936.3748,0 c -145.5604,0 -264.0081,118.48019 -264.0081,264.03748 0,145.56009 118.4477,264.00799 264.0081,264.00799 145.56,0 264.0381,-118.4479 264.0381,-264.00799 C 2200.4129,118.48019 2081.9387,0 1936.493,0 Z m -574.8405,0.41309997 c -149.0035,0 -270.1453,118.44239003 -270.1453,263.97848003 0,145.65309 121.1418,264.06699 270.1453,264.06699 33.9466,0 205.0874,-31.0893 205.0874,-106.6595 V 268.66968 c 0,-26.3945 -21.8854,-47.79759 -48.8893,-47.79759 h -174.314 c -27.0065,0 -49.0073,21.40309 -49.0073,47.79759 0,26.5144 22.0008,47.9156 49.0073,47.9156 h 125.2772 v 82.99669 c -29.8008,21.046 -68.478,33.1633 -107.1613,33.1633 -94.9982,0 -172.2191,-75.49239 -172.2191,-168.35369 0,-92.74429 77.2209,-168.383286 172.2191,-168.383286 44.7664,0 87.1163,16.769896 119.3467,47.089496 46.1765,43.3904 114.2822,-25.2747 67.8608,-68.952495 C 1498.2598,26.584998 1431.7212,0.41309997 1361.5343,0.41309997 Z m -1097.54629,0.118 c -145.5602,0 -264.00829966,118.45059003 -264.00829966,264.00798003 0,145.55999 118.44809966,264.03749 264.00829966,264.03749 145.5603,0 264.0378,-118.4775 264.0378,-264.03749 0,-145.55739 -118.4739,-264.00798003 -263.9197,-264.00798003 z m 417.0789,0.14749999 c -62.4195,0 -62.4169,98.57519404 0,98.57519404 h 104.5352 l -96.5395,94.798596 c -37.6321,28.5633 -15.7847,94.95939 33.6649,88.89759 57.6642,-7.5094 173.7841,-28.7969 168.2359,69.6606 0,66.20059 -125.9831,112.36149 -170.1242,40.7165 -14.1299,-22.93 -43.4268,-29.5634 -65.4415,-14.7229 -22.0145,14.7154 -28.3782,45.25539 -14.2508,68.18539 31.6688,51.2617 86.3029,81.9345 146.3435,81.9345 47.4964,0 95.6203,-16.2422 133.0367,-46.9715 79.81189,-65.6258 89.98329,-189.76119 9.8841,-261.08698 -18.5073,-16.5222 -64.1694,-41.5721 -87.9536,-41.5721 26.7912,-26.3015 109.8462,-90.254096 109.8462,-129.142093 0,-25.263599 -21.6314,-49.27279704 -46.3815,-49.27279704 z M 1936.3748,93.234794 c 94.1464,0 170.8029,76.541696 170.8029,170.802686 0,94.1439 -76.6565,170.80269 -170.8029,170.80269 -94.147,0 -170.8027,-76.65879 -170.8027,-170.80269 0,-94.14389 76.5409,-170.802686 170.8027,-170.802686 z m -1672.38679,0.5016 c 94.1468,0 170.8324,76.541596 170.8324,170.802686 0,94.1439 -76.6856,170.80269 -170.8324,170.80269 -94.1467,0 -170.8028,-76.65879 -170.8028,-170.80269 0,-94.14399 76.5417,-170.802686 170.8028,-170.802686 z" /></svg>
